Coordinates
version=1
nRows=27
nColumns=38
inDegrees=no

Units are S.I. units (second, meters, Newtons, ...)
If the header above contains a line with 'inDegrees', this indicates whether rotational values are in degrees (yes) or radians (no).

endheader
time	pelvis_tilt	pelvis_list	pelvis_rotation	pelvis_tx	pelvis_ty	pelvis_tz	hip_flexion_r	hip_adduction_r	hip_rotation_r	knee_angle_r	ankle_angle_r	subtalar_angle_r	mtp_angle_r	hip_flexion_l	hip_adduction_l	hip_rotation_l	knee_angle_l	ankle_angle_l	subtalar_angle_l	mtp_angle_l	lumbar_extension	lumbar_bending	lumbar_rotation	arm_flex_r	arm_add_r	arm_rot_r	elbow_flex_r	pro_sup_r	wrist_flex_r	wrist_dev_r	arm_flex_l	arm_add_l	arm_rot_l	elbow_flex_l	pro_sup_l	wrist_flex_l	wrist_dev_l
0.96	2.27363	1.56018	2.43219	0.707713	-0.0925791	1.03018	-0.265393	0.0152893	-0.193593	0.232186	-0.0098036	0	0	0.325001	-0.0425675	-0.214056	0.0518581	-0.157721	0	0	-0.408093	0.0265759	-0.0615735	-0.026502	-0.379969	0.397042	0.740689	1.01027	0	0	-0.0602881	-0.534696	0.151338	0.772841	1.34997	0	0
0.97	1.86646	1.5584	2.83499	0.707557	-0.107142	1.02951	-0.276571	0.00729119	-0.192623	0.246257	-0.0170728	0	0	0.322222	-0.0378164	-0.222195	0.0783299	-0.162079	0	0	-0.408952	0.0206014	-0.0622634	-0.0269231	-0.373869	0.398184	0.731217	1.009	0	0	-0.0586411	-0.535049	0.151045	0.766998	1.34965	0	0
0.98	1.56233	1.55525	3.13425	0.707379	-0.122117	1.02889	-0.286728	-0.00121991	-0.190185	0.263831	-0.0258171	0	0	0.316628	-0.0330222	-0.228162	0.10359	-0.171922	0	0	-0.409257	0.0145435	-0.06231	-0.0275792	-0.367618	0.400336	0.720006	1.0067	0	0	-0.0584413	-0.53511	0.150463	0.761721	1.34947	0	0
0.99	1.44902	1.55211	-3.04232	0.707025	-0.137251	1.02819	-0.29275	-0.0101145	-0.186102	0.285646	-0.0373816	0	0	0.3107	-0.0287151	-0.231849	0.124671	-0.189935	0	0	-0.407194	0.00848283	-0.0605248	-0.027817	-0.361132	0.403837	0.706516	1.00359	0	0	-0.0595132	-0.534607	0.149185	0.75691	1.34931	0	0
1	1.43929	1.54902	-3.03949	0.706725	-0.152554	1.02749	-0.294508	-0.019708	-0.178627	0.312266	-0.054154	0	0	0.30569	-0.0235439	-0.234458	0.140543	-0.22065	0	0	-0.40222	0.00213325	-0.0593023	-0.0273068	-0.354173	0.40959	0.690381	0.998572	0	0	-0.0622609	-0.533354	0.146163	0.752409	1.34845	0	0
1.01	1.51495	1.54608	-3.1206	0.706583	-0.167891	1.02684	-0.291077	-0.0291752	-0.16624	0.344593	-0.0717933	0	0	0.303912	-0.0183913	-0.235027	0.155106	-0.252633	0	0	-0.394779	-0.00377155	-0.0600698	-0.0264686	-0.346966	0.416553	0.67372	0.992101	0	0	-0.0664279	-0.531439	0.141175	0.748388	1.34627	0	0
1.02	1.65927	1.54274	3.01488	0.706575	-0.183196	1.02619	-0.282013	-0.0383574	-0.151012	0.381817	-0.0921002	0	0	0.305131	-0.0140255	-0.230626	0.170978	-0.277536	0	0	-0.384515	-0.00916275	-0.0634346	-0.0257041	-0.33933	0.423984	0.657282	0.984129	0	0	-0.0720369	-0.529336	0.134964	0.744916	1.34339	0	0
1.03	1.82188	1.53821	2.84941	0.706673	-0.198251	1.02562	-0.267462	-0.0481654	-0.133546	0.423806	-0.117888	0	0	0.307236	-0.00995493	-0.22068	0.187855	-0.286125	0	0	-0.372806	-0.0142625	-0.0675061	-0.0251724	-0.3324	0.431045	0.642701	0.975058	0	0	-0.0779289	-0.526849	0.128343	0.742234	1.34054	0	0
1.04	1.95161	1.53228	2.71658	0.706786	-0.212963	1.02531	-0.248502	-0.0589088	-0.113843	0.46961	-0.15024	0	0	0.309577	-0.00561657	-0.208813	0.208343	-0.274184	0	0	-0.361563	-0.0194818	-0.0711739	-0.0240047	-0.326135	0.438261	0.629119	0.965806	0	0	-0.0825585	-0.523678	0.121936	0.739524	1.33565	0	0
1.05	2.00891	1.525	2.65594	0.706792	-0.227371	1.02551	-0.227423	-0.0710359	-0.090793	0.517976	-0.192492	0	0	0.311485	-0.000246982	-0.201154	0.234399	-0.250004	0	0	-0.352486	-0.0259904	-0.0750709	-0.0206102	-0.319714	0.448202	0.61423	0.955324	0	0	-0.085232	-0.521547	0.118114	0.736634	1.33035	0	0
1.06	1.98316	1.5178	2.67799	0.706537	-0.241381	1.02638	-0.206615	-0.0837078	-0.0657173	0.56817	-0.239228	0	0	0.309827	0.00631601	-0.197994	0.26114	-0.227128	0	0	-0.349305	-0.0338649	-0.0787178	-0.0156057	-0.31316	0.457611	0.600649	0.945215	0	0	-0.0854694	-0.521751	0.117529	0.735559	1.32485	0	0
1.07	1.91475	1.51116	2.74191	0.705984	-0.255042	1.02765	-0.186711	-0.0957585	-0.0406443	0.618831	-0.289071	0	0	0.303835	0.0135465	-0.197309	0.283709	-0.208983	0	0	-0.351099	-0.0423313	-0.081314	-0.0101613	-0.307051	0.465113	0.589816	0.935317	0	0	-0.0845188	-0.52417	0.11955	0.73782	1.31929	0	0
1.08	1.83935	1.50637	2.81183	0.70533	-0.268345	1.02918	-0.166705	-0.105083	-0.0149615	0.668	-0.340865	0	0	0.293713	0.0195678	-0.197815	0.299469	-0.194976	0	0	-0.356431	-0.048812	-0.0815319	-0.00534501	-0.303169	0.470277	0.583369	0.926172	0	0	-0.081621	-0.527126	0.123779	0.742408	1.31451	0	0
1.09	1.80767	1.50097	2.83652	0.704549	-0.281313	1.03026	-0.14104	-0.112045	0.0137374	0.719573	-0.392028	0	0	0.284185	0.025117	-0.199341	0.31021	-0.18324	0	0	-0.359315	-0.0549423	-0.0795841	-0.00300354	-0.301559	0.472668	0.582063	0.919044	0	0	-0.0787629	-0.530837	0.129729	0.749139	1.31139	0	0
1.1	1.78596	1.49768	2.84985	0.703606	-0.293933	1.03137	-0.11376	-0.114786	0.0425037	0.768489	-0.446421	0	0	0.272147	0.0282209	-0.200815	0.31589	-0.171282	0	0	-0.362908	-0.0589183	-0.0751083	-0.00222852	-0.302438	0.472517	0.585871	0.912944	0	0	-0.0748166	-0.534808	0.136938	0.757417	1.31042	0	0
1.11	1.76447	1.49585	2.86095	0.702418	-0.306311	1.03263	-0.0866867	-0.115198	0.0717582	0.812752	-0.502624	0	0	0.257097	0.0296458	-0.204254	0.316291	-0.158923	0	0	-0.367281	-0.0617118	-0.0688194	-0.00220255	-0.305017	0.470084	0.593375	0.908203	0	0	-0.0706486	-0.539097	0.144737	0.76666	1.31136	0	0
1.12	1.76405	1.4937	2.85052	0.701007	-0.318675	1.0337	-0.0557091	-0.114899	0.0963453	0.861056	-0.540048	0	0	0.242359	0.0309818	-0.209875	0.313575	-0.148236	0	0	-0.368948	-0.0647452	-0.0632023	-0.00313149	-0.307754	0.466416	0.602291	0.905626	0	0	-0.0689242	-0.543404	0.149522	0.776873	1.31347	0	0
1.13	1.73706	1.49457	2.86608	0.69954	-0.330841	1.03523	-0.0273639	-0.111901	0.114617	0.905736	-0.550821	0	0	0.223326	0.0294913	-0.219281	0.307726	-0.138914	0	0	-0.373744	-0.0652892	-0.0568114	-0.00371552	-0.312206	0.462221	0.613327	0.904332	0	0	-0.0668182	-0.546571	0.152141	0.787391	1.31766	0	0
1.14	1.56023	1.49649	3.03883	0.698879	-0.343619	1.03749	-0.00738291	-0.11796	0.0348676	0.951046	-0.555791	0	0	0.190425	0.0301463	-0.232528	0.298097	-0.131952	0	0	-0.389701	-0.0636541	-0.0584876	-0.00748005	-0.319491	0.454807	0.632596	0.904129	0	0	-0.0674741	-0.551053	0.15205	0.803491	1.3223	0	0
1.15	1.5439	1.48539	3.04925	0.697173	-0.356012	1.03673	-0.0277889	-0.148785	0.0607502	0.940007	-0.49928	0	0	0.173945	0.0402009	-0.249174	0.293949	-0.12071	0	0	-0.388889	-0.0756674	-0.0648706	-0.0188009	-0.322563	0.439017	0.65904	0.911583	0	0	-0.0814033	-0.563202	0.144592	0.831143	1.32226	0	0
1.16	1.57128	1.49071	3.0189	0.696534	-0.367799	1.03832	-0.00184826	-0.147723	0.0885032	0.962284	-0.38967	0	0	0.159402	0.0340937	-0.256962	0.286781	-0.116564	0	0	-0.388283	-0.066662	-0.0651903	-0.020362	-0.328162	0.430735	0.66912	0.917907	0	0	-0.0785127	-0.562278	0.143417	0.837081	1.32767	0	0
1.17	1.56986	1.49731	3.02612	0.696405	-0.380183	1.04044	0.0174606	-0.141472	0.0692411	0.981219	-0.355301	0	0	0.141144	0.0277409	-0.260745	0.277028	-0.11608	0	0	-0.388888	-0.0542455	-0.072916	-0.020639	-0.332666	0.427184	0.673941	0.919825	0	0	-0.0757008	-0.562299	0.144023	0.841349	1.33221	0	0
1.18	1.56966	1.50433	3.03507	0.696279	-0.392572	1.04262	0.0399406	-0.13402	0.0479866	1.00339	-0.322637	0	0	0.123634	0.0208314	-0.261622	0.267829	-0.116036	0	0	-0.389365	-0.0409038	-0.0825052	-0.0205662	-0.336505	0.424822	0.676633	0.922194	0	0	-0.0729389	-0.56258	0.143365	0.845762	1.33847	0	0
1.19	1.47629	1.51481	3.13796	0.69622	-0.404854	1.0456	0.049056	-0.121756	0.0273742	1.00737	-0.293234	0	0	0.100108	0.0101442	-0.26283	0.257993	-0.117465	0	0	-0.39625	-0.0237479	-0.0917931	-0.0185988	-0.341432	0.423714	0.67877	0.925155	0	0	-0.0688678	-0.56202	0.141571	0.850497	1.3455	0	0
1.2	1.16637	1.52495	-2.82286	0.696318	-0.417244	1.04938	0.0444734	-0.107529	0.00185332	0.998694	-0.266721	0	0	0.0678894	-0.00343036	-0.263741	0.247179	-0.120384	0	0	-0.4128	-0.00297498	-0.102791	-0.0165565	-0.347917	0.421295	0.684745	0.928688	0	0	-0.0646709	-0.561595	0.136846	0.858666	1.35247	0	0
1.21	0.906292	1.52998	-2.55192	0.69614	-0.429528	1.05226	0.0511971	-0.0986765	-0.0239888	0.995824	-0.249902	0	0	0.0429078	-0.0142441	-0.263595	0.238185	-0.122582	0	0	-0.421888	0.0136668	-0.112542	-0.0164292	-0.353201	0.417645	0.689607	0.931507	0	0	-0.0619448	-0.562551	0.132886	0.867572	1.35726	0	0
1.22	0.593014	1.53479	-2.23243	0.695568	-0.441213	1.05509	0.0654619	-0.0867321	-0.0436494	0.995807	-0.236245	0	0	0.0211722	-0.0277361	-0.263748	0.22962	-0.124836	0	0	-0.430253	0.0311689	-0.116846	-0.0148583	-0.359073	0.414082	0.693827	0.934244	0	0	-0.0575213	-0.562343	0.128479	0.876053	1.3609	0	0
